<svg width="150" height="43" viewBox="0 0 150 43" fill="none" xmlns="http://www.w3.org/2000/svg">
<path d="M0.668972 0.507968H5.04213L3.03148 2.51862H0.668972V0.507968ZM6.07259 0.507968H9.46556V2.51862H6.93968L6.06002 3.38571V9.30456H4.06194V2.51862L6.07259 0.507968ZM17.3859 0.495402L19.3966 0.520535V9.29199H17.3859V7.87197H12.5981V9.29199H10.6V7.90967L12.5981 5.89902H17.3859V0.495402ZM12.5981 0.495402V4.86856L10.6 6.87921V0.495402H12.5981ZM29.3276 0.495402V2.50605H22.504L23.8988 3.90094H29.3276V5.91159H23.9114L22.5291 7.29391H29.3276V9.29199H20.531V6.45195L21.0714 5.91159L22.0641 4.91883L20.531 3.37314V0.495402H29.3276Z" fill="#DFFF24"/>
<path d="M6.22632 29.343L7.7923 30.909L4.51533 34.186L1.61536 31.257V16.4382H6.22632V29.343ZM21.9152 16.4382H26.5261V31.257L21.0742 36.738H17.2172L14.0562 33.577L10.9243 36.738H7.06731L5.70432 35.375L11.7363 29.343V16.4382H16.3762V29.343L19.1312 32.098L21.9152 29.343V16.4382ZM33.7885 32.069H42.4595L47.0994 36.709H31.9036L29.1776 33.983V16.4382L33.7885 21.0491V32.069ZM46.7224 16.4092L49.4774 19.1641V36.709L44.8374 32.069V21.0491H36.1665L31.5266 16.4092H46.7224ZM67.7262 32.04L72.3951 36.709H54.8213L52.0953 33.983V16.4092L56.7063 21.0491V32.04H67.7262ZM79.624 26.8781L83.945 31.228L80.697 34.476L75.013 28.7921V16.4382H79.624V26.8781ZM90.6729 16.4382H95.3129V28.7921L87.3669 36.738H82.93L81.886 35.665L90.6729 26.8781V16.4382ZM118.231 16.4092V21.0491H102.484L105.703 24.2681H118.231V28.9081H105.732L102.542 32.098H118.231V36.709H97.9308V30.155L99.1777 28.9081L101.469 26.6171L97.9308 23.0501V16.4092H118.231ZM129.838 28.8791L134.507 24.2391H141.148V36.709L120.848 36.738V32.098H136.508V28.8791H129.838ZM126.677 16.4382H141.148V21.0781H128.649L125.517 24.2391H132.129L127.489 28.8791H120.848V22.2961L126.677 16.4382Z" fill="white"/>
<path d="M148.348 36.738H143.766V32.127H148.348V36.738Z" fill="#DFFF24"/>
</svg>
