<svg width="134" height="134" viewBox="0 0 134 134" fill="none" xmlns="http://www.w3.org/2000/svg">
<path fill-rule="evenodd" clip-rule="evenodd" d="M120.6 66.9999C120.6 81.2155 114.953 94.8489 104.901 104.901C94.8494 114.953 81.216 120.6 67.0004 120.6C52.7848 120.6 39.1514 114.953 29.0995 104.901C19.0475 94.8489 13.4004 81.2155 13.4004 66.9999C13.4004 52.7843 19.0475 39.1509 29.0995 29.099C39.1514 19.047 52.7848 13.3999 67.0004 13.3999C81.216 13.3999 94.8494 19.047 104.901 29.099C114.953 39.1509 120.6 52.7843 120.6 66.9999ZM67.0004 46.8999C65.8232 46.8988 64.6665 47.2078 63.6467 47.7959C62.6269 48.384 61.7801 49.2304 61.1915 50.2499C60.7665 51.0397 60.1872 51.7361 59.4881 52.2978C58.7889 52.8596 57.9841 53.2752 57.1214 53.5202C56.2586 53.7651 55.3554 53.8343 54.4654 53.7238C53.5754 53.6132 52.7166 53.325 51.94 52.8764C51.1634 52.4277 50.4848 51.8278 49.9444 51.112C49.404 50.3962 49.0128 49.5792 48.794 48.7095C48.5752 47.8397 48.5332 46.9348 48.6706 46.0486C48.808 45.1623 49.1219 44.3126 49.5938 43.5499C51.8063 39.7183 55.2212 36.7237 59.309 35.0306C63.3967 33.3375 67.929 33.0405 72.2027 34.1857C76.4765 35.3309 80.253 37.8542 82.9465 41.3644C85.6401 44.8745 87.1002 49.1754 87.1004 53.5999C87.1016 57.758 85.8136 61.8143 83.4138 65.21C81.014 68.6057 77.6204 71.1739 73.7004 72.5609V73.6999C73.7004 75.4769 72.9945 77.181 71.738 78.4375C70.4815 79.694 68.7773 80.3999 67.0004 80.3999C65.2234 80.3999 63.5193 79.694 62.2628 78.4375C61.0063 77.181 60.3004 75.4769 60.3004 73.6999V66.9999C60.3004 65.2229 61.0063 63.5188 62.2628 62.2623C63.5193 61.0058 65.2234 60.2999 67.0004 60.2999C68.7773 60.2999 70.4815 59.594 71.738 58.3375C72.9945 57.081 73.7004 55.3769 73.7004 53.5999C73.7004 51.823 72.9945 50.1188 71.738 48.8623C70.4815 47.6058 68.7773 46.8999 67.0004 46.8999ZM67.0004 100.5C68.7773 100.5 70.4815 99.794 71.738 98.5375C72.9945 97.281 73.7004 95.5769 73.7004 93.7999C73.7004 92.0229 72.9945 90.3188 71.738 89.0623C70.4815 87.8058 68.7773 87.0999 67.0004 87.0999C65.2234 87.0999 63.5193 87.8058 62.2628 89.0623C61.0063 90.3188 60.3004 92.0229 60.3004 93.7999C60.3004 95.5769 61.0063 97.281 62.2628 98.5375C63.5193 99.794 65.2234 100.5 67.0004 100.5Z" fill="#939393"/>
</svg>
