<svg width="294" height="98" viewBox="0 0 494 118" fill="none" xmlns="http://www.w3.org/2000/svg">
<path d="M1.44523 1.836H13.9732L8.21323 7.596H1.44523V1.836ZM16.9252 1.836H26.6452V7.596H19.4092L16.8892 10.08V27.036H11.1652V7.596L16.9252 1.836ZM49.3351 1.8L55.0951 1.872V27H49.3351V22.932H35.6191V27H29.8951V23.04L35.6191 17.28H49.3351V1.8ZM35.6191 1.8V14.328L29.8951 20.088V1.8H35.6191ZM83.5449 1.8V7.56H63.9969L67.9929 11.556H83.5449V17.316H68.0289L64.0689 21.276H83.5449V27H58.3449V18.864L59.8929 17.316L62.7369 14.472L58.3449 10.044V1.8H83.5449Z" fill="#DFFF24"/>
<path d="M19.3334 92.9207L24.5174 98.1047L13.6694 108.953L4.06937 99.2567V50.2007H19.3334V92.9207ZM71.2694 50.2007H86.5334V99.2567L68.4854 117.401H55.7174L45.2534 106.937L34.8854 117.401H22.1174L17.6054 112.889L37.5734 92.9207V50.2007H52.9334V92.9207L62.0534 102.041L71.2694 92.9207V50.2007ZM110.575 101.945H139.279L154.639 117.305H104.335L95.3106 108.281V50.2007L110.575 65.4647V101.945ZM153.391 50.1047L162.511 59.2247V117.305L147.151 101.945V65.4647H118.447L103.087 50.1047H153.391ZM222.921 101.849L238.377 117.305H180.201L171.177 108.281V50.1047L186.441 65.4647V101.849H222.921ZM262.307 84.7607L276.611 99.1607L265.859 109.913L247.043 91.0967V50.2007H262.307V84.7607ZM298.883 50.2007H314.243V91.0967L287.939 117.401H273.251L269.795 113.849L298.883 84.7607V50.2007ZM390.109 50.1047V65.4647H337.981L348.637 76.1207H390.109V91.4807H348.733L338.173 102.041H390.109V117.305H322.909V95.6087L327.037 91.4807L334.621 83.8967L322.909 72.0887V50.1047H390.109ZM428.536 91.3847L443.992 76.0247H465.976V117.305L398.776 117.401V102.041H450.616V91.3847H428.536ZM418.072 50.2007H465.976V65.5607H424.6L414.232 76.0247H436.12L420.76 91.3847H398.776V69.5927L418.072 50.2007Z" fill="white"/>
<path d="M489.81 117.401H474.642V102.137H489.81V117.401Z" fill="#DFFF24"/>
</svg>
