<svg width="35" height="35" viewBox="0 0 55 55" fill="none" xmlns="http://www.w3.org/2000/svg">
<rect x="0.662109" width="54.3376" height="54.3376" rx="27.1688" fill="white"/>
<path d="M41.1096 16.1371C38.849 15.0794 36.4319 14.3107 33.9049 13.873C33.5946 14.4341 33.232 15.1888 32.982 15.7892C30.2957 15.3852 27.6342 15.3852 24.9973 15.7892C24.7473 15.1888 24.3765 14.4341 24.0634 13.873C21.5337 14.3107 19.1138 15.0822 16.8532 16.1427C12.2937 23.0328 11.0576 29.7517 11.6756 36.3753C14.6998 38.6337 17.6306 40.0056 20.5119 40.9033C21.2233 39.9242 21.8578 38.8834 22.4043 37.7865C21.3633 37.3909 20.3663 36.9028 19.4242 36.3361C19.6741 36.1509 19.9186 35.9573 20.1548 35.7581C25.9009 38.4457 32.1443 38.4457 37.8218 35.7581C38.0607 35.9573 38.3052 36.1509 38.5524 36.3361C37.6075 36.9055 36.6077 37.3937 35.5667 37.7893C36.1133 38.8834 36.745 39.927 37.4592 40.9061C40.3433 40.0083 43.2768 38.6365 46.3009 36.3753C47.0261 28.6969 45.0621 22.0396 41.1096 16.1371ZM23.1872 32.3019C21.4622 32.3019 20.0477 30.6916 20.0477 28.7306C20.0477 26.7696 21.432 25.1565 23.1872 25.1565C24.9424 25.1565 26.3569 26.7668 26.3267 28.7306C26.3294 30.6916 24.9424 32.3019 23.1872 32.3019ZM34.7894 32.3019C33.0644 32.3019 31.6499 30.6916 31.6499 28.7306C31.6499 26.7696 33.0342 25.1565 34.7894 25.1565C36.5445 25.1565 37.9591 26.7668 37.9289 28.7306C37.9289 30.6916 36.5445 32.3019 34.7894 32.3019Z" fill="#B8B8B8"/>
</svg>
