<svg width="80" height="40" viewBox="0 0 80 23" fill="none" xmlns="http://www.w3.org/2000/svg">
<path d="M0.356784 0.315187H2.68914L1.61679 1.38753H0.356784V0.315187ZM3.23871 0.315187H5.0483V1.38753H3.70116L3.23201 1.84998V5.0067H2.16637V1.38753L3.23871 0.315187ZM9.2725 0.308485L10.3448 0.321889V5H9.2725V4.24266H6.71897V5H5.65333V4.26276L6.71897 3.19042H9.2725V0.308485ZM6.71897 0.308485V2.64084L5.65333 3.71318V0.308485H6.71897ZM15.6414 0.308485V1.38083H12.0021L12.746 2.12477H15.6414V3.19712H12.7528L12.0155 3.93436H15.6414V5H10.9499V3.48531L11.2381 3.19712L11.7675 2.66765L10.9499 1.84328V0.308485H15.6414Z" fill="#DFFF24"/>
<path d="M3.3207 15.3606L4.15589 16.1958L2.40817 17.9435L0.86152 16.3814V8.47796H3.3207V15.3606ZM11.6881 8.47796H14.1473V16.3814L11.2396 19.3045H9.18251L7.49666 17.6187L5.82628 19.3045H3.76923L3.0423 18.5776L6.25934 15.3606V8.47796H8.73398V15.3606L10.2033 16.8299L11.6881 15.3606V8.47796ZM18.0205 16.8144H22.645L25.1197 19.2891H17.0152L15.5614 17.8352V8.47796L18.0205 10.9371V16.8144ZM24.9186 8.46249L26.3879 9.93181V19.2891L23.9133 16.8144V10.9371H19.2888L16.8142 8.46249H24.9186ZM36.1206 16.799L38.6107 19.2891H29.238L27.7842 17.8352V8.46249L30.2433 10.9371V16.799H36.1206ZM42.4661 14.0459L44.7706 16.3659L43.0384 18.0981L40.0069 15.0667V8.47796H42.4661V14.0459ZM48.3589 8.47796H50.8335V15.0667L46.5957 19.3045H44.2293L43.6725 18.7323L48.3589 14.0459V8.47796ZM63.0563 8.46249V10.9371H54.658L56.3748 12.6539H63.0563V15.1286H56.3902L54.6889 16.8299H63.0563V19.2891H52.2297V15.7936L52.8948 15.1286L54.1167 13.9067L52.2297 12.0043V8.46249H63.0563ZM69.2471 15.1131L71.7373 12.6385H75.2791V19.2891L64.4525 19.3045V16.8299H72.8045V15.1131H69.2471ZM67.5613 8.47796H75.2791V10.9526H68.613L66.9426 12.6385H70.469L67.9944 15.1131H64.4525V11.6022L67.5613 8.47796Z" fill="white"/>
<path d="M79.119 19.3045H76.6753V16.8454H79.119V19.3045Z" fill="#DFFF24"/>
</svg>
