<svg width="296" height="69" viewBox="0 0 296 69" fill="none" xmlns="http://www.w3.org/2000/svg">
<path d="M150.894 12.074H155.334V10.9739L154.218 9.86377H148.682L147.568 10.9739V19.7979L148.682 20.898H154.218L155.334 19.7979V18.6978H150.894V16.4878H155.334V14.2878H150.894V12.074Z" fill="#FCFCFC"/>
<path d="M154.586 0H148.32V6.24H154.586V0Z" fill="#3BBFF0"/>
<path d="M142.398 9.86377V14.2859H139.072V9.86377H136.862L135.748 10.9739V19.7979L136.862 20.898H139.072V16.4858H142.398V20.898H144.618L145.722 19.7979V10.9739L144.618 9.86377H142.398Z" fill="#FCFCFC"/>
<path d="M125.044 9.86377L123.928 10.9739V12.074H127.254V19.7959L128.368 20.8958H129.474L130.578 19.7959V12.074H133.902V10.9739L132.796 9.86377H125.044Z" fill="#FCFCFC"/>
<path d="M124.116 24.7002V68.8462H155.148L159.578 64.4343V29.1223L155.148 24.7102H124.116V24.7002ZM137.416 33.5342H146.286V60.0244H137.416V33.5342Z" fill="#FCFCFC"/>
<path d="M164.009 24.7002V68.8462H195.041L199.471 64.4343V51.1882L195.041 46.7764L199.471 42.3643V29.1204L195.041 24.7083H164.009V24.7002ZM177.309 51.1902H186.179V60.0244H177.309V51.1902ZM177.309 42.3562V33.5322H186.179V42.3562H177.309Z" fill="#FCFCFC"/>
<path d="M208.34 24.7002L203.91 29.1123V64.4243L208.34 68.8362H234.94L239.37 64.4243V29.1123L234.94 24.7002H208.34ZM217.2 33.5342H226.07V60.0244H217.2V33.5342Z" fill="#FCFCFC"/>
<path d="M279.256 46.7783L287.628 38.4401L296 46.7783L287.628 55.1165L279.256 46.7783Z" fill="#3BBFF0"/>
<path d="M265.962 24.7002V37.9443L261.532 42.3562L257.102 37.9443V24.7002H248.23L243.8 29.1223V42.3562L248.23 46.7783L243.8 51.1902V64.4343L248.23 68.8462H257.102V55.6023L261.532 51.1902L265.962 55.6023V68.8462H274.834L279.264 64.4343V51.1902L274.834 46.7783L279.264 42.3562V29.1223L274.834 24.7002H265.962Z" fill="#FCFCFC"/>
<path d="M106.394 24.6997V37.9439L93.0936 24.6997H84.2336L79.8037 29.1218V64.4339L84.2336 68.8457H93.0936V42.3557L106.394 55.5999V68.8438H115.264L119.694 64.4319V29.1199L115.264 24.6978L106.394 24.6997Z" fill="#FCFCFC"/>
<path d="M70.9246 24.7979H44.3245L39.8945 29.21V64.522L44.3245 68.9339H53.1945V51.2778H62.0546V68.9439H70.9146L75.3446 64.532V29.22L70.9246 24.7979ZM57.6245 44.0759L51.9605 38.436L57.6245 32.7959L63.2885 38.436L57.6245 44.0759Z" fill="#FCFCFC"/>
<path d="M4.43 24.7002L0 29.1223V46.7783L4.43 51.1902H22.16V60.0122H13.3V55.6004H0V64.4343L4.43 68.8462H31.03L35.46 64.4343V46.7783L31.03 42.3562H13.3V33.5322H22.16V37.9443H35.46V29.1223L31.03 24.7002H4.43Z" fill="#FCFCFC"/>
</svg>
