<svg width="35" height="35" viewBox="0 0 55 55" fill="none" xmlns="http://www.w3.org/2000/svg">
<rect width="54.3376" height="54.3376" rx="27.1688" fill="white"/>
<path fill-rule="evenodd" clip-rule="evenodd" d="M19.9021 42.8375C34.6843 42.8375 42.7697 30.779 42.7697 20.3232C42.7697 19.9799 42.7697 19.6393 42.7462 19.2999C44.319 18.1814 45.6764 16.7927 46.7556 15.2037C45.2905 15.8439 43.7334 16.2638 42.141 16.4489C43.8176 15.4596 45.0731 13.9054 45.6744 12.0715C44.0957 12.9933 42.3701 13.6438 40.5701 13.9929C37.5263 10.8071 32.4357 10.6528 29.198 13.6495C27.112 15.5818 26.2247 18.4628 26.8731 21.2107C20.4114 20.8906 14.3904 17.8862 10.3085 12.9437C8.17551 16.5595 9.2665 21.1833 12.798 23.5051C11.519 23.4685 10.2674 23.1294 9.14898 22.5162V22.6166C9.15093 26.3828 11.848 29.6257 15.5969 30.372C14.4139 30.6901 13.1721 30.7363 11.9695 30.5068C13.0213 33.7311 16.0396 35.9395 19.4771 36.0032C16.6311 38.2054 13.1153 39.4012 9.49566 39.3974C8.85713 39.3954 8.2186 39.3588 7.58203 39.2836C11.2585 41.6054 15.5343 42.8375 19.9021 42.8318" fill="#B8B8B8"/>
</svg>
